<svg width="24" height="24" viewBox="0 0 24 24" fill="none" xmlns="http://www.w3.org/2000/svg">
<path d="M3 18.4993V5.49932C3 5.13266 3.15 4.85332 3.45 4.66132C3.75 4.46999 4.06667 4.44099 4.4 4.57432L19.8 11.0743C20.2167 11.2577 20.425 11.566 20.425 11.9993C20.425 12.4327 20.2167 12.741 19.8 12.9243L4.4 19.4243C4.06667 19.5577 3.75 19.5283 3.45 19.3363C3.15 19.145 3 18.866 3 18.4993ZM5 16.9993L16.85 11.9993L5 6.99932V10.4993L11 11.9993L5 13.4993V16.9993ZM5 11.9993V6.99932V16.9993V11.9993Z" fill="white"/>
</svg>
