<svg width="20" height="20" viewBox="0 0 20 20" fill="none" xmlns="http://www.w3.org/2000/svg">
<circle cx="10" cy="10" r="10" fill="#FD651D"/>
<path d="M13.7021 11.6846C13.6247 12.7555 13.2282 13.5986 12.5127 14.2139C11.8018 14.8291 10.863 15.1367 9.69629 15.1367C8.42025 15.1367 7.41536 14.7083 6.68164 13.8516C5.95247 12.9902 5.58789 11.8099 5.58789 10.3105V9.70215C5.58789 8.74512 5.75651 7.90202 6.09375 7.17285C6.43099 6.44368 6.91178 5.88542 7.53613 5.49805C8.16504 5.10612 8.89421 4.91016 9.72363 4.91016C10.8721 4.91016 11.7972 5.21777 12.499 5.83301C13.2008 6.44824 13.6064 7.31185 13.7158 8.42383H11.665C11.6149 7.78125 11.4349 7.31641 11.125 7.0293C10.8197 6.73763 10.3525 6.5918 9.72363 6.5918C9.04004 6.5918 8.52734 6.83789 8.18555 7.33008C7.84831 7.81771 7.67513 8.5765 7.66602 9.60645V10.3584C7.66602 11.4339 7.8278 12.2201 8.15137 12.7168C8.47949 13.2135 8.99447 13.4619 9.69629 13.4619C10.3298 13.4619 10.8014 13.3184 11.1113 13.0312C11.4258 12.7396 11.6058 12.2907 11.6514 11.6846H13.7021Z" fill="white"/>
</svg>
