<svg width="20" height="20" viewBox="0 0 20 20" fill="none" xmlns="http://www.w3.org/2000/svg">
<path d="M7.14805 17.148L5.70805 15.708L10.588 10.828L9.16805 9.40805L4.28805 14.288L2.84805 12.848C2.53805 12.538 1.99805 12.758 1.99805 13.208L1.99805 17.498C1.99805 17.778 2.21805 17.998 2.49805 17.998L6.78805 17.998C7.23805 17.998 7.45805 17.458 7.14805 17.148ZM13.208 17.998L17.498 17.998C17.778 17.998 17.998 17.778 17.998 17.498L17.998 13.208C17.998 12.758 17.458 12.538 17.148 12.858L15.708 14.298L10.998 9.59805L10.998 2.99805C10.998 2.44805 10.548 1.99805 9.99805 1.99805C9.44805 1.99805 8.99805 2.44805 8.99805 2.99805L8.99805 9.99805C8.99805 10.258 9.10805 10.518 9.28805 10.708L14.288 15.718L12.848 17.158C12.538 17.458 12.758 17.998 13.208 17.998Z" fill="#455A64"/>
</svg>
