<svg width="20" height="20" viewBox="0 0 20 20" fill="none" xmlns="http://www.w3.org/2000/svg">
<path d="M2.4755 13.0112C2.4755 12.5241 2.3487 12.1517 2.0951 11.8942C1.84534 11.6366 1.48031 11.5078 1 11.5078V9.50056C1.48415 9.50056 1.8511 9.37738 2.10086 9.13102C2.35062 8.88466 2.4755 8.53192 2.4755 8.07279V8.0056V5.33483C2.4755 4.47816 2.66186 3.87626 3.03458 3.52912C3.4073 3.17637 4.06244 3 5 3V4.8897C4.6196 4.90649 4.35639 5.01288 4.21037 5.20885C4.0682 5.40482 3.99712 5.69317 3.99712 6.07391V8.58511C3.97406 9.63774 3.5245 10.2592 2.64841 10.4496V10.5504C3.54755 10.7464 3.99712 11.3399 3.99712 12.3309V12.4065V14.9177C3.99712 15.2984 4.0682 15.5868 4.21037 15.7828C4.35255 15.9787 4.61575 16.0851 5 16.1019V18C4.06244 18 3.4073 17.8236 3.03458 17.4709C2.66186 17.1237 2.4755 16.519 2.4755 15.6568V13.0112Z" fill="#455A64" stroke="#455A64" stroke-width="0.2"/>
<path d="M17.5245 7.9888C17.5245 8.47592 17.6513 8.84826 17.9049 9.10582C18.1547 9.36338 18.5197 9.49216 19 9.49216L19 11.4994C18.5159 11.4994 18.1489 11.6226 17.8991 11.869C17.6494 12.1153 17.5245 12.4681 17.5245 12.9272L17.5245 12.9944L17.5245 15.6652C17.5245 16.5218 17.3381 17.1237 16.9654 17.4709C16.5927 17.8236 15.9376 18 15 18L15 16.1103C15.3804 16.0935 15.6436 15.9871 15.7896 15.7912C15.9318 15.5952 16.0029 15.3068 16.0029 14.9261L16.0029 12.4149C16.0259 11.3623 16.4755 10.7408 17.3516 10.5504L17.3516 10.4496C16.4525 10.2536 16.0029 9.66013 16.0029 8.66909L16.0029 8.5935L16.0029 6.08231C16.0029 5.70157 15.9318 5.41321 15.7896 5.21724C15.6475 5.02128 15.3842 4.91489 15 4.8981L15 3C15.9376 3 16.5927 3.17637 16.9654 3.52911C17.3381 3.87626 17.5245 4.48096 17.5245 5.34322L17.5245 7.9888Z" fill="#455A64" stroke="#455A64" stroke-width="0.2"/>
<path d="M5.70001 10.1621C5.70001 9.83398 5.7879 9.58594 5.96368 9.41797C6.13947 9.25 6.39532 9.16602 6.73126 9.16602C7.05548 9.16602 7.30548 9.25195 7.48126 9.42383C7.66095 9.5957 7.75079 9.8418 7.75079 10.1621C7.75079 10.4707 7.66095 10.7148 7.48126 10.8945C7.30157 11.0703 7.05157 11.1582 6.73126 11.1582C6.40314 11.1582 6.14923 11.0723 5.96954 10.9004C5.78986 10.7246 5.70001 10.4785 5.70001 10.1621Z" fill="#455A64"/>
<path d="M9.12189 10.1621C9.12189 9.83398 9.20978 9.58594 9.38556 9.41797C9.56134 9.25 9.8172 9.16602 10.1531 9.16602C10.4774 9.16602 10.7274 9.25195 10.9031 9.42383C11.0828 9.5957 11.1727 9.8418 11.1727 10.1621C11.1727 10.4707 11.0828 10.7148 10.9031 10.8945C10.7234 11.0703 10.4734 11.1582 10.1531 11.1582C9.82501 11.1582 9.57111 11.0723 9.39142 10.9004C9.21173 10.7246 9.12189 10.4785 9.12189 10.1621Z" fill="#455A64"/>
<path d="M12.5438 10.1621C12.5438 9.83398 12.6317 9.58594 12.8074 9.41797C12.9832 9.25 13.2391 9.16602 13.575 9.16602C13.8992 9.16602 14.1492 9.25195 14.325 9.42383C14.5047 9.5957 14.5945 9.8418 14.5945 10.1621C14.5945 10.4707 14.5047 10.7148 14.325 10.8945C14.1453 11.0703 13.8953 11.1582 13.575 11.1582C13.2469 11.1582 12.993 11.0723 12.8133 10.9004C12.6336 10.7246 12.5438 10.4785 12.5438 10.1621Z" fill="#455A64"/>
</svg>
