<svg width="20" height="20" viewBox="0 0 20 20" fill="none" xmlns="http://www.w3.org/2000/svg">
<circle cx="10" cy="10" r="10" fill="#202AA7"/>
<path d="M10.5732 11.3564H8.93945V15H6.88867V5.04688H10.5869C11.7627 5.04688 12.6696 5.30892 13.3076 5.83301C13.9456 6.3571 14.2646 7.09766 14.2646 8.05469C14.2646 8.73372 14.1165 9.30111 13.8203 9.75684C13.5286 10.208 13.0843 10.568 12.4873 10.8369L14.6406 14.9043V15H12.4395L10.5732 11.3564ZM8.93945 9.69531H10.5938C11.1087 9.69531 11.5075 9.56543 11.79 9.30566C12.0726 9.04134 12.2139 8.67904 12.2139 8.21875C12.2139 7.74935 12.0794 7.38021 11.8105 7.11133C11.5462 6.84245 11.1383 6.70801 10.5869 6.70801H8.93945V9.69531Z" fill="white"/>
</svg>
