<svg width="24" height="25" viewBox="0 0 24 25" fill="none" xmlns="http://www.w3.org/2000/svg">
<path d="M15.5001 14.0114H14.7101L14.4301 13.7414C15.6301 12.3414 16.2501 10.4314 15.9101 8.40137C15.4401 5.62137 13.1201 3.40137 10.3201 3.06137C6.09014 2.54137 2.53014 6.10137 3.05014 10.3314C3.39014 13.1314 5.61014 15.4514 8.39014 15.9214C10.4201 16.2614 12.3301 15.6414 13.7301 14.4414L14.0001 14.7214V15.5114L18.2501 19.7614C18.6601 20.1714 19.3301 20.1714 19.7401 19.7614C20.1501 19.3514 20.1501 18.6814 19.7401 18.2714L15.5001 14.0114ZM9.50014 14.0114C7.01014 14.0114 5.00014 12.0014 5.00014 9.51137C5.00014 7.02137 7.01014 5.01137 9.50014 5.01137C11.9901 5.01137 14.0001 7.02137 14.0001 9.51137C14.0001 12.0014 11.9901 14.0114 9.50014 14.0114Z" fill="#AAB3B7"/>
</svg>
