<svg width="22" height="22" viewBox="0 0 22 22" fill="none" xmlns="http://www.w3.org/2000/svg">
<path d="M20.9902 10.4531C20.9902 11.8331 20.9602 13.2131 21.0002 14.5931C21.0302 15.6931 20.5602 16.4131 19.6202 16.8831C17.9902 17.6931 16.3702 18.5131 14.7402 19.3331C13.8102 19.8031 12.8802 20.2731 11.9602 20.7531C11.3202 21.0831 10.6902 21.0831 10.0502 20.7631C7.48017 19.4631 4.92017 18.1631 2.35017 16.8631C1.42017 16.3931 0.99017 15.6831 1.00017 14.6031C1.03017 11.8031 1.01017 9.01308 1.01017 6.21308C1.01017 5.06308 1.41017 4.50308 2.49017 4.09308C4.96017 3.15308 7.43017 2.20308 9.90017 1.23308C10.6302 0.943081 11.3102 0.913081 12.0502 1.20308C14.5702 2.19308 17.0902 3.15308 19.6102 4.12308C20.5802 4.49308 20.9902 5.09308 20.9902 6.14308C20.9902 7.58308 20.9902 9.02308 20.9902 10.4531ZM10.4302 14.9631C10.4302 13.6431 10.4202 12.3231 10.4402 11.0031C10.4402 10.6831 10.3802 10.5031 10.0602 10.3631C7.59017 9.30308 5.13017 8.21308 2.68017 7.13308C2.38017 7.00308 2.23017 6.97308 2.23017 7.41308C2.25017 9.90308 2.24017 12.3931 2.23017 14.8831C2.23017 15.2131 2.33017 15.3931 2.62017 15.5431C5.07017 16.7831 7.51017 18.0231 9.95017 19.2831C10.3102 19.4731 10.4302 19.4131 10.4302 18.9831C10.4202 17.6431 10.4302 16.3031 10.4302 14.9631ZM11.6602 14.9331C11.6602 16.2531 11.6702 17.5731 11.6502 18.8931C11.6402 19.3431 11.7002 19.4631 12.1502 19.2331C14.5402 17.9931 16.9302 16.7731 19.3302 15.5631C19.6702 15.3931 19.7602 15.1831 19.7602 14.8131C19.7502 12.3831 19.7402 9.94308 19.7602 7.51308C19.7802 6.95308 19.6002 7.00308 19.2102 7.17308C16.8302 8.24308 14.4402 9.30308 12.0502 10.3431C11.7402 10.4731 11.6402 10.6431 11.6502 10.9731C11.6702 12.2931 11.6602 13.6131 11.6602 14.9331ZM2.28017 5.53308C2.40017 5.61308 2.44017 5.64308 2.49017 5.67308C5.20017 6.87308 7.91017 8.06308 10.6202 9.26308C10.9502 9.40308 11.2202 9.33308 11.5202 9.20308C13.0602 8.51308 14.6002 7.84308 16.1402 7.16308C17.3202 6.64308 18.5002 6.11308 19.7602 5.55308C16.8802 4.45308 14.0802 3.38308 11.2902 2.31308C11.0402 2.21308 10.8302 2.26308 10.6002 2.35308C7.85017 3.40308 5.08017 4.45308 2.28017 5.53308Z" fill="#455A64" stroke="#455A64" stroke-width="0.5"/>
<path d="M19.8502 9.6131L11.1502 13.3931" stroke="#455A64" stroke-width="1.5" stroke-miterlimit="10" stroke-linecap="round"/>
<path d="M19.8502 9.6131L11.1502 13.3931" stroke="#455A64" stroke-width="1.5" stroke-miterlimit="10" stroke-linecap="round"/>
<path d="M19.8502 12.6131L11.1502 16.3931" stroke="#455A64" stroke-width="1.5" stroke-miterlimit="10" stroke-linecap="round"/>
<path d="M1.93018 12.8231L10.7502 16.3031" stroke="#455A64" stroke-width="1.5" stroke-miterlimit="10" stroke-linecap="round"/>
<path d="M2.15018 9.90308L10.9702 13.3831" stroke="#455A64" stroke-width="1.5" stroke-miterlimit="10" stroke-linecap="round"/>
</svg>
