<svg width="20" height="20" viewBox="0 0 20 20" fill="none" xmlns="http://www.w3.org/2000/svg">
<path d="M10.0625 18L12.0444 17.0566L18.0572 14.2035L18.9904 13.7622V12.9025V8.14741V6.84641V6.62577V6.40514L18.5671 6.21493L17.9995 5.93343L16.7103 5.32477L10.6975 2.47171L9.70657 2L8.71566 2.47171L2.70283 5.32477L1.61571 5.84213L1.28862 6.0019L1.00962 6.13885V6.62577L1 7.1203V8.22349V12.933V13.8003L1.94281 14.2416L7.95564 17.0642L9.12934 17.6196L10.0625 18ZM9.70657 3.77271L15.7194 6.62577L9.70657 9.47884L3.69375 6.62577L9.70657 3.77271ZM8.93693 15.7556L2.9241 12.933V8.22349L8.93693 11.0461V15.7556ZM17.0663 12.9025L11.0534 15.7556V11.0005L17.0663 8.14741V12.9025Z" fill="#455A64"/>
</svg>
